# xmcd
#
# Track frame offsets:
#	150
#	13194
#	30333
#	47742
#	66451
#	76193
#	90627
#	100513
#	112874
#	124416
#	143591
#	166008
#	184218
#	203769
#	226758
#	250560
#	272786
#	290925
#
# Disc length: 4110 seconds
# Revision: 0
# Processed by: cddbd v1.5.2PL0 Copyright (c) Steve Scherf et al.
# Submitted via: dBpowerAMP V12.0
#
DISCID=ec100c12
DTITLE=Lightnin' Hopkins - Eight Classic Albums disc 1
DYEAR=2014
DGENRE=Blues
TTITLE0=Penitentiary Blues
TTITLE1=Bad Luck And Trouble
TTITLE2=Come And Go With Me
TTITLE3=Trouble Stay 'Way From My Door
TTITLE4=See That My Grave Is Kept Clean
TTITLE5=Goin' Back To Florida
TTITLE6=Reminiscenses Of Blind Lemon
TTITLE7=Fan It
TTITLE8=Tell Me Baby
TTITLE9=She's Mine
TTITLE10=Rocky Mountain
TTITLE11=Go To Move You Baby
TTITLE12=So Sorry To Leave You
TTITLE13=Take A Trip With Me
TTITLE14=Last Night Blues
TTITLE15=Lightnin' Stroke
TTITLE16=Hard To Love A Woman
TTITLE17=Conversation Blues
EXTD=
EXTT0=
EXTT1=
EXTT2=
EXTT3=
EXTT4=
EXTT5=
EXTT6=
EXTT7=
EXTT8=
EXTT9=
EXTT10=
EXTT11=
EXTT12=
EXTT13=
EXTT14=
EXTT15=
EXTT16=
EXTT17=
PLAYORDER=
